<svg width="82" height="109" viewBox="0 0 82 109" fill="none" xmlns="http://www.w3.org/2000/svg">
<rect y="49" width="82" height="38" fill="#047C3F"/>
<rect x="1" y="1" width="80" height="107" stroke="white" stroke-width="2"/>
<line y1="49.5" x2="82" y2="49.5" stroke="white"/>
<circle cx="41.5" cy="50.5" r="16.5" stroke="white" stroke-width="2"/>
<rect x="0.5" y="-0.5" width="42" height="20" transform="matrix(1 0 0 -1 20 20)" stroke="white"/>
<rect x="0.5" y="-0.5" width="26" height="10" transform="matrix(1 0 0 -1 28 10)" stroke="white"/>
<path d="M34.5293 20.5C34.8489 23.2237 37.7514 25.5 41.5 25.5C45.2486 25.5 48.1511 23.2237 48.4707 20.5H48.4576H48.4358H48.4141H48.3925H48.3709H48.3494H48.3279H48.3066H48.2853H48.264H48.2428H48.2217H48.2006H48.1796H48.1587H48.1378H48.117H48.0962H48.0755H48.0549H48.0343H48.0138H47.9933H47.9729H47.9526H47.9323H47.912H47.8919H47.8718H47.8517H47.8317H47.8117H47.7919H47.772H47.7522H47.7325H47.7129H47.6932H47.6737H47.6542H47.6347H47.6153H47.596H47.5767H47.5575H47.5383H47.5192H47.5001H47.481H47.4621H47.4431H47.4243H47.4054H47.3867H47.3679H47.3492H47.3306H47.312H47.2935H47.275H47.2566H47.2382H47.2199H47.2016H47.1833H47.1651H47.147H47.1289H47.1108H47.0928H47.0748H47.0569H47.039H47.0212H47.0034H46.9857H46.968H46.9503H46.9327H46.9151H46.8976H46.8801H46.8626H46.8452H46.8279H46.8105H46.7932H46.776H46.7588H46.7416H46.7245H46.7074H46.6904H46.6734H46.6564H46.6395H46.6226H46.6057H46.5889H46.5721H46.5554H46.5387H46.522H46.5053H46.4887H46.4722H46.4556H46.4391H46.4227H46.4062H46.3898H46.3735H46.3572H46.3409H46.3246H46.3084H46.2922H46.276H46.2599H46.2437H46.2277H46.2116H46.1956H46.1796H46.1637H46.1477H46.1319H46.116H46.1001H46.0843H46.0686H46.0528H46.0371H46.0214H46.0057H45.9901H45.9744H45.9588H45.9433H45.9277H45.9122H45.8967H45.8812H45.8658H45.8504H45.835H45.8196H45.8042H45.7889H45.7736H45.7583H45.7431H45.7278H45.7126H45.6974H45.6822H45.6671H45.6519H45.6368H45.6217H45.6067H45.5916H45.5766H45.5615H45.5465H45.5315H45.5166H45.5016H45.4867H45.4718H45.4569H45.442H45.4271H45.4123H45.3974H45.3826H45.3678H45.353H45.3382H45.3235H45.3087H45.294H45.2793H45.2646H45.2499H45.2352H45.2205H45.2058H45.1912H45.1765H45.1619H45.1473H45.1327H45.1181H45.1035H45.0889H45.0743H45.0598H45.0452H45.0307H45.0161H45.0016H44.9871H44.9726H44.958H44.9435H44.929H44.9145H44.9001H44.8856H44.8711H44.8566H44.8422H44.8277H44.8132H44.7988H44.7843H44.7699H44.7554H44.741H44.7265H44.7121H44.6977H44.6832H44.6688H44.6544H44.6399H44.6255H44.6111H44.5966H44.5822H44.5677H44.5533H44.5389H44.5244H44.51H44.4955H44.4811H44.4666H44.4522H44.4377H44.4232H44.4088H44.3943H44.3798H44.3653H44.3508H44.3364H44.3219H44.3073H44.2928H44.2783H44.2638H44.2493H44.2347H44.2202H44.2056H44.191H44.1765H44.1619H44.1473H44.1327H44.1181H44.1034H44.0888H44.0742H44.0595H44.0448H44.0302H44.0155H44.0008H43.9861H43.9713H43.9566H43.9418H43.9271H43.9123H43.8975H43.8827H43.8678H43.853H43.8381H43.8233H43.8084H43.7935H43.7786H43.7636H43.7487H43.7337H43.7187H43.7037H43.6887H43.6736H43.6586H43.6435H43.6284H43.6132H43.5981H43.5829H43.5678H43.5525H43.5373H43.5221H43.5068H43.4915H43.4762H43.4609H43.4455H43.4301H43.4147H43.3993H43.3838H43.3684H43.3529H43.3373H43.3218H43.3062H43.2906H43.275H43.2593H43.2436H43.2279H43.2122H43.1964H43.1806H43.1648H43.149H43.1331H43.1172H43.1012H43.0853H43.0693H43.0533H43.0372H43.0211H43.005H42.9889H42.9727H42.9565H42.9402H42.924H42.9076H42.8913H42.8749H42.8585H42.8421H42.8256H42.8091H42.7926H42.776H42.7594H42.7427H42.726H42.7093H42.6925H42.6757H42.6589H42.642H42.6251H42.6082H42.5912H42.5742H42.5571H42.54H42.5229H42.5057H42.4885H42.4712H42.4539H42.4366H42.4192H42.4018H42.3843H42.3668H42.3493H42.3317H42.3141H42.2964H42.2787H42.2609H42.2431H42.2253H42.2074H42.1894H42.1714H42.1534H42.1353H42.1172H42.0991H42.0808H42.0626H42.0443H42.0259H42.0075H41.9891H41.9706H41.952H41.9334H41.9148H41.8961H41.8774H41.8586H41.8397H41.8208H41.8019H41.7829H41.7638H41.7447H41.7256H41.7064H41.6871H41.6678H41.6485H41.6291H41.6096H41.5901H41.5705H41.5509H41.5312H41.5114H41.4916H41.4718H41.4519H41.4319H41.4119H41.3918H41.3717H41.3515H41.3313H41.3109H41.2906H41.2702H41.2497H41.2291H41.2085H41.1879H41.1672H41.1464H41.1255H41.1046H41.0837H41.0627H41.0416H41.0204H40.9992H40.9779H40.9566H40.9352H40.9137H40.8922H40.8706H40.849H40.8273H40.8055H40.7836H40.7617H40.7397H40.7177H40.6956H40.6734H40.6512H40.6288H40.6065H40.584H40.5615H40.5389H40.5163H40.4935H40.4708H40.4479H40.425H40.402H40.3789H40.3558H40.3325H40.3093H40.2859H40.2625H40.239H40.2154H40.1918H40.1681H40.1443H40.1204H40.0965H40.0725H40.0484H40.0242H40H39.9758H39.9518H39.928H39.9044H39.881H39.8578H39.8347H39.8118H39.7891H39.7666H39.7443H39.7222H39.7002H39.6784H39.6568H39.6354H39.6141H39.5931H39.5721H39.5514H39.5309H39.5105H39.4903H39.4702H39.4504H39.4306H39.4111H39.3917H39.3725H39.3535H39.3346H39.3159H39.2974H39.279H39.2608H39.2427H39.2248H39.2071H39.1895H39.1721H39.1548H39.1377H39.1208H39.104H39.0873H39.0708H39.0545H39.0383H39.0222H39.0063H38.9906H38.975H38.9595H38.9442H38.9291H38.9141H38.8992H38.8845H38.8699H38.8554H38.8411H38.827H38.8129H38.799H38.7853H38.7717H38.7582H38.7448H38.7316H38.7185H38.7056H38.6928H38.6801H38.6675H38.6551H38.6428H38.6306H38.6186H38.6066H38.5948H38.5832H38.5716H38.5602H38.5489H38.5377H38.5266H38.5157H38.5048H38.4941H38.4835H38.473H38.4627H38.4524H38.4423H38.4322H38.4223H38.4125H38.4028H38.3932H38.3837H38.3744H38.3651H38.3559H38.3469H38.3379H38.3291H38.3203H38.3117H38.3031H38.2947H38.2863H38.2781H38.2699H38.2619H38.2539H38.2461H38.2383H38.2306H38.223H38.2155H38.2081H38.2008H38.1936H38.1865H38.1794H38.1725H38.1656H38.1588H38.1521H38.1455H38.1389H38.1325H38.1261H38.1198H38.1136H38.1074H38.1014H38.0954H38.0895H38.0836H38.0779H38.0722H38.0666H38.061H38.0556H38.0502H38.0448H38.0396H38.0344H38.0292H38.0242H38.0192H38.0142H38.0094H38.0046H37.9998H37.9951H37.9905H37.986H37.9815H37.977H37.9726H37.9683H37.964H37.9598H37.9556H37.9515H37.9474H37.9434H37.9394H37.9355H37.9317H37.9278H37.9241H37.9204H37.9167H37.913H37.9094H37.9059H37.9024H37.8989H37.8955H37.8921H37.8888H37.8855H37.8822H37.879H37.8758H37.8726H37.8695H37.8664H37.8633H37.8603H37.8573H37.8543H37.8514H37.8485H37.8456H37.8427H37.8399H37.8371H37.8343H37.8315H37.8288H37.8261H37.8234H37.8207H37.818H37.8154H37.8128H37.8101H37.8076H37.805H37.8024H37.7999H37.7973H37.7948H37.7923H37.7898H37.7873H37.7848H37.7823H37.7799H37.7774H37.7749H37.7725H37.77H37.7676H37.7651H37.7627H37.7602H37.7578H37.7553H37.7529H37.7504H37.748H37.7455H37.743H37.7406H37.7381H37.7356H37.7331H37.7306H37.7281H37.7255H37.723H37.7204H37.7179H37.7153H37.7127H37.7101H37.7074H37.7048H37.7021H37.6994H37.6967H37.694H37.6912H37.6884H37.6856H37.6828H37.68H37.6771H37.6742H37.6712H37.6683H37.6653H37.6623H37.6592H37.6561H37.653H37.6499H37.6467H37.6435H37.6402H37.6369H37.6336H37.6302H37.6268H37.6234H37.6199H37.6163H37.6128H37.6091H37.6055H37.6018H37.598H37.5942H37.5904H37.5865H37.5825H37.5785H37.5745H37.5704H37.5662H37.562H37.5578H37.5535H37.5491H37.5447H37.5402H37.5357H37.5311H37.5264H37.5217H37.5169H37.512H37.5071H37.5022H37.4971H37.492H37.4868H37.4816H37.4763H37.4709H37.4655H37.46H37.4544H37.4487H37.443H37.4372H37.4313H37.4253H37.4193H37.4132H37.407H37.4007H37.3944H37.388H37.3815H37.3749H37.3682H37.3614H37.3546H37.3477H37.3407H37.3336H37.3264H37.3191H37.3117H37.3043H37.2967H37.2891H37.2813H37.2735H37.2656H37.2576H37.2494H37.2412H37.2329H37.2245H37.216H37.2074H37.1987H37.1899H37.181H37.1719H37.1628H37.1536H37.1443H37.1348H37.1253H37.1156H37.1058H37.096H37.086H37.0759H37.0657H37.0553H37.0449H37.0343H37.0237H37.0129H37.002H36.9909H36.9798H36.9685H36.9572H36.9457H36.934H36.9223H36.9104H36.8984H36.8863H36.874H36.8616H36.8491H36.8365H36.8237H36.8108H36.7978H36.7846H36.7713H36.7579H36.7443H36.7306H36.7168H36.7028H36.6887H36.6744H36.66H36.6455H36.6308H36.616H36.601H36.5859H36.5707H36.5553H36.5398H36.5241H36.5082H36.4922H36.4761H36.4598H36.4434H36.4268H36.41H36.3931H36.3761H36.3589H36.3415H36.324H36.3063H36.2885H36.2705H36.2523H36.234H36.2155H36.1969H36.1781H36.1591H36.14H36.1207H36.1012H36.0815H36.0617H36.0418H36.0216H36.0013H35.9808H35.9601H35.9393H35.9183H35.8971H35.8757H35.8542H35.8325H35.8106H35.7885H35.7662H35.7438H35.7212H35.6984H35.6754H35.6522H35.6289H35.6053H35.5816H35.5577H35.5336H35.5093H35.4848H35.4601H35.4353H35.4102H35.385H35.3595H35.3339H35.308H35.282H35.2558H35.2293H35.2027H35.1759H35.1488H35.1216H35.0942H35.0665H35.0387H35.0106H34.9824H34.9539H34.9253H34.8964H34.8673H34.838H34.8085H34.7788H34.7489H34.7187H34.6884H34.6578H34.627H34.596H34.5648H34.5333H34.5293Z" stroke="white"/>
<rect x="-0.5" y="0.5" width="42" height="20" transform="matrix(-1 0 0 1 62 87)" stroke="white"/>
<rect x="-0.5" y="0.5" width="26" height="10" transform="matrix(-1 0 0 1 54 97)" stroke="white"/>
<path d="M48.4707 87.5C48.1511 84.7763 45.2486 82.5 41.5 82.5C37.7514 82.5 34.8489 84.7763 34.5293 87.5H34.5424H34.5642H34.5859H34.6075H34.6291H34.6506H34.6721H34.6934H34.7147H34.736H34.7572H34.7783H34.7994H34.8204H34.8413H34.8622H34.883H34.9038H34.9245H34.9451H34.9657H34.9862H35.0067H35.0271H35.0474H35.0677H35.088H35.1081H35.1282H35.1483H35.1683H35.1883H35.2081H35.228H35.2478H35.2675H35.2871H35.3068H35.3263H35.3458H35.3653H35.3847H35.404H35.4233H35.4425H35.4617H35.4808H35.4999H35.519H35.5379H35.5569H35.5757H35.5946H35.6133H35.6321H35.6508H35.6694H35.688H35.7065H35.725H35.7434H35.7618H35.7801H35.7984H35.8167H35.8349H35.853H35.8711H35.8892H35.9072H35.9252H35.9431H35.961H35.9788H35.9966H36.0143H36.032H36.0497H36.0673H36.0849H36.1024H36.1199H36.1374H36.1548H36.1721H36.1895H36.2068H36.224H36.2412H36.2584H36.2755H36.2926H36.3096H36.3266H36.3436H36.3605H36.3774H36.3943H36.4111H36.4279H36.4446H36.4613H36.478H36.4947H36.5113H36.5278H36.5444H36.5609H36.5773H36.5938H36.6102H36.6265H36.6428H36.6591H36.6754H36.6916H36.7078H36.724H36.7401H36.7563H36.7723H36.7884H36.8044H36.8204H36.8363H36.8523H36.8681H36.884H36.8999H36.9157H36.9314H36.9472H36.9629H36.9786H36.9943H37.0099H37.0256H37.0412H37.0567H37.0723H37.0878H37.1033H37.1188H37.1342H37.1496H37.165H37.1804H37.1958H37.2111H37.2264H37.2417H37.2569H37.2722H37.2874H37.3026H37.3178H37.3329H37.3481H37.3632H37.3783H37.3933H37.4084H37.4234H37.4385H37.4535H37.4685H37.4834H37.4984H37.5133H37.5282H37.5431H37.558H37.5729H37.5877H37.6026H37.6174H37.6322H37.647H37.6618H37.6765H37.6913H37.706H37.7207H37.7354H37.7501H37.7648H37.7795H37.7942H37.8088H37.8235H37.8381H37.8527H37.8673H37.8819H37.8965H37.9111H37.9257H37.9402H37.9548H37.9693H37.9839H37.9984H38.0129H38.0274H38.042H38.0565H38.071H38.0855H38.0999H38.1144H38.1289H38.1434H38.1578H38.1723H38.1868H38.2012H38.2157H38.2301H38.2446H38.259H38.2735H38.2879H38.3023H38.3168H38.3312H38.3456H38.3601H38.3745H38.3889H38.4034H38.4178H38.4323H38.4467H38.4611H38.4756H38.49H38.5045H38.5189H38.5334H38.5478H38.5623H38.5768H38.5912H38.6057H38.6202H38.6347H38.6492H38.6636H38.6781H38.6927H38.7072H38.7217H38.7362H38.7507H38.7653H38.7798H38.7944H38.809H38.8235H38.8381H38.8527H38.8673H38.8819H38.8966H38.9112H38.9258H38.9405H38.9552H38.9698H38.9845H38.9992H39.0139H39.0287H39.0434H39.0582H39.0729H39.0877H39.1025H39.1173H39.1322H39.147H39.1619H39.1767H39.1916H39.2065H39.2214H39.2364H39.2513H39.2663H39.2813H39.2963H39.3113H39.3264H39.3414H39.3565H39.3716H39.3868H39.4019H39.4171H39.4322H39.4475H39.4627H39.4779H39.4932H39.5085H39.5238H39.5391H39.5545H39.5699H39.5853H39.6007H39.6162H39.6316H39.6471H39.6627H39.6782H39.6938H39.7094H39.725H39.7407H39.7564H39.7721H39.7878H39.8036H39.8194H39.8352H39.851H39.8669H39.8828H39.8988H39.9147H39.9307H39.9467H39.9628H39.9789H39.995H40.0111H40.0273H40.0435H40.0598H40.076H40.0924H40.1087H40.1251H40.1415H40.1579H40.1744H40.1909H40.2074H40.224H40.2406H40.2573H40.274H40.2907H40.3075H40.3243H40.3411H40.358H40.3749H40.3918H40.4088H40.4258H40.4429H40.46H40.4771H40.4943H40.5115H40.5288H40.5461H40.5634H40.5808H40.5982H40.6157H40.6332H40.6507H40.6683H40.6859H40.7036H40.7213H40.7391H40.7569H40.7747H40.7926H40.8106H40.8286H40.8466H40.8647H40.8828H40.9009H40.9192H40.9374H40.9557H40.9741H40.9925H41.0109H41.0294H41.048H41.0666H41.0852H41.1039H41.1226H41.1414H41.1603H41.1792H41.1981H41.2171H41.2362H41.2553H41.2744H41.2936H41.3129H41.3322H41.3515H41.3709H41.3904H41.4099H41.4295H41.4491H41.4688H41.4886H41.5084H41.5282H41.5481H41.5681H41.5881H41.6082H41.6283H41.6485H41.6687H41.6891H41.7094H41.7298H41.7503H41.7709H41.7915H41.8121H41.8328H41.8536H41.8745H41.8954H41.9163H41.9373H41.9584H41.9796H42.0008H42.0221H42.0434H42.0648H42.0863H42.1078H42.1294H42.151H42.1727H42.1945H42.2164H42.2383H42.2603H42.2823H42.3044H42.3266H42.3488H42.3712H42.3935H42.416H42.4385H42.4611H42.4837H42.5065H42.5292H42.5521H42.575H42.598H42.6211H42.6442H42.6675H42.6907H42.7141H42.7375H42.761H42.7846H42.8082H42.8319H42.8557H42.8796H42.9035H42.9275H42.9516H42.9758H43H43.0242H43.0482H43.072H43.0956H43.119H43.1422H43.1653H43.1882H43.2109H43.2334H43.2557H43.2778H43.2998H43.3216H43.3432H43.3646H43.3859H43.4069H43.4279H43.4486H43.4691H43.4895H43.5097H43.5298H43.5496H43.5694H43.5889H43.6083H43.6275H43.6465H43.6654H43.6841H43.7026H43.721H43.7392H43.7573H43.7752H43.7929H43.8105H43.8279H43.8452H43.8623H43.8792H43.896H43.9127H43.9292H43.9455H43.9617H43.9778H43.9937H44.0094H44.025H44.0405H44.0558H44.0709H44.0859H44.1008H44.1155H44.1301H44.1446H44.1589H44.173H44.1871H44.201H44.2147H44.2283H44.2418H44.2552H44.2684H44.2815H44.2944H44.3072H44.3199H44.3325H44.3449H44.3572H44.3694H44.3814H44.3934H44.4052H44.4168H44.4284H44.4398H44.4511H44.4623H44.4734H44.4843H44.4952H44.5059H44.5165H44.527H44.5373H44.5476H44.5577H44.5678H44.5777H44.5875H44.5972H44.6068H44.6163H44.6256H44.6349H44.6441H44.6531H44.6621H44.6709H44.6797H44.6883H44.6969H44.7053H44.7137H44.7219H44.7301H44.7381H44.7461H44.7539H44.7617H44.7694H44.777H44.7845H44.7919H44.7992H44.8064H44.8135H44.8206H44.8275H44.8344H44.8412H44.8479H44.8545H44.8611H44.8675H44.8739H44.8802H44.8864H44.8926H44.8986H44.9046H44.9105H44.9164H44.9221H44.9278H44.9334H44.939H44.9444H44.9498H44.9552H44.9604H44.9656H44.9708H44.9758H44.9808H44.9858H44.9906H44.9954H45.0002H45.0049H45.0095H45.014H45.0185H45.023H45.0274H45.0317H45.036H45.0402H45.0444H45.0485H45.0526H45.0566H45.0606H45.0645H45.0683H45.0722H45.0759H45.0796H45.0833H45.087H45.0906H45.0941H45.0976H45.1011H45.1045H45.1079H45.1112H45.1145H45.1178H45.121H45.1242H45.1274H45.1305H45.1336H45.1367H45.1397H45.1427H45.1457H45.1486H45.1515H45.1544H45.1573H45.1601H45.1629H45.1657H45.1685H45.1712H45.1739H45.1766H45.1793H45.182H45.1846H45.1872H45.1899H45.1924H45.195H45.1976H45.2001H45.2027H45.2052H45.2077H45.2102H45.2127H45.2152H45.2177H45.2201H45.2226H45.2251H45.2275H45.23H45.2324H45.2349H45.2373H45.2398H45.2422H45.2447H45.2471H45.2496H45.252H45.2545H45.257H45.2594H45.2619H45.2644H45.2669H45.2694H45.2719H45.2745H45.277H45.2796H45.2821H45.2847H45.2873H45.2899H45.2926H45.2952H45.2979H45.3006H45.3033H45.306H45.3088H45.3116H45.3144H45.3172H45.32H45.3229H45.3258H45.3288H45.3317H45.3347H45.3377H45.3408H45.3439H45.347H45.3501H45.3533H45.3565H45.3598H45.3631H45.3664H45.3698H45.3732H45.3766H45.3801H45.3837H45.3872H45.3909H45.3945H45.3982H45.402H45.4058H45.4096H45.4135H45.4175H45.4215H45.4255H45.4296H45.4338H45.438H45.4422H45.4465H45.4509H45.4553H45.4598H45.4643H45.4689H45.4736H45.4783H45.4831H45.488H45.4929H45.4978H45.5029H45.508H45.5132H45.5184H45.5237H45.5291H45.5345H45.54H45.5456H45.5513H45.557H45.5628H45.5687H45.5747H45.5807H45.5868H45.593H45.5993H45.6056H45.612H45.6185H45.6251H45.6318H45.6386H45.6454H45.6523H45.6593H45.6664H45.6736H45.6809H45.6883H45.6957H45.7033H45.7109H45.7187H45.7265H45.7344H45.7424H45.7506H45.7588H45.7671H45.7755H45.784H45.7926H45.8013H45.8101H45.819H45.8281H45.8372H45.8464H45.8557H45.8652H45.8747H45.8844H45.8942H45.904H45.914H45.9241H45.9343H45.9447H45.9551H45.9657H45.9763H45.9871H45.998H46.0091H46.0202H46.0315H46.0428H46.0543H46.066H46.0777H46.0896H46.1016H46.1137H46.126H46.1384H46.1509H46.1635H46.1763H46.1892H46.2022H46.2154H46.2287H46.2421H46.2557H46.2694H46.2832H46.2972H46.3113H46.3256H46.34H46.3545H46.3692H46.384H46.399H46.4141H46.4293H46.4447H46.4602H46.4759H46.4918H46.5078H46.5239H46.5402H46.5566H46.5732H46.59H46.6069H46.6239H46.6411H46.6585H46.676H46.6937H46.7115H46.7295H46.7477H46.766H46.7845H46.8031H46.8219H46.8409H46.86H46.8793H46.8988H46.9185H46.9383H46.9582H46.9784H46.9987H47.0192H47.0399H47.0607H47.0817H47.1029H47.1243H47.1458H47.1675H47.1894H47.2115H47.2338H47.2562H47.2788H47.3016H47.3246H47.3478H47.3711H47.3947H47.4184H47.4423H47.4664H47.4907H47.5152H47.5399H47.5647H47.5898H47.615H47.6405H47.6661H47.692H47.718H47.7442H47.7707H47.7973H47.8241H47.8512H47.8784H47.9058H47.9335H47.9613H47.9894H48.0176H48.0461H48.0747H48.1036H48.1327H48.162H48.1915H48.2212H48.2511H48.2813H48.3116H48.3422H48.373H48.404H48.4352H48.4667H48.4707Z" stroke="white"/>
<path d="M42 42L52 59L42 54.0417L32 59L42 42Z" fill="white"/>
</svg>
